<svg xmlns="http://www.w3.org/2000/svg" version="1.1" xmlns:xlink="http://www.w3.org/1999/xlink" xmlns:svgjs="http://svgjs.dev/svgjs" width="1000" height="750" viewBox="0 0 1000 750"><rect width="1000" height="750" fill="#101125"></rect><g transform="matrix(0.834,0,0,0.834,82.49454545454546,115.4193570850203)"><svg viewBox="0 0 396 247" data-background-color="#101125" preserveAspectRatio="xMidYMid meet" height="623" width="1000" xmlns="http://www.w3.org/2000/svg" xmlns:xlink="http://www.w3.org/1999/xlink"><g id="tight-bounds" transform="matrix(1,0,0,1,0.2400000000000091,-0.09999999999999432)"><svg viewBox="0 0 395.52 247.2" height="247.2" width="395.52"><g><svg></svg></g><g><svg viewBox="0 0 395.52 247.2" height="247.2" width="395.52"><g transform="matrix(1,0,0,1,75.54432,88.87827955264157)"><svg viewBox="0 0 244.43135999999998 69.44344089471683" height="69.44344089471683" width="244.43135999999998"><g><svg viewBox="0 0 244.43135999999998 69.44344089471683" height="69.44344089471683" width="244.43135999999998"><g><svg viewBox="0 0 421.9088122179238 119.86514195320753" height="69.44344089471683" width="244.43135999999998"><g transform="matrix(1,0,0,1,0,3.978404229615819)"><svg viewBox="0 0 244.43135999999996 111.90833349397589" height="111.90833349397589" width="244.43135999999996"><g id="textblocktransform"><svg viewBox="0 0 244.43135999999996 111.90833349397589" height="111.90833349397589" width="244.43135999999996" id="textblock"><g><svg viewBox="0 0 244.43135999999996 111.90833349397589" height="111.90833349397589" width="244.43135999999996"><g transform="matrix(1,0,0,1,0,0)"><svg width="244.43135999999996" viewBox="2.2 -35.5 78.85 36.1" height="111.90833349397589" data-palette-color="#ffffff"><path d="M39.53 0.6Q37.65 0.6 36.5-0.73 35.35-2.05 35.35-4.33 35.35-6.6 37.43-15.65 39.5-24.7 39.5-27.2 39.5-29.7 37.55-29.7L37.55-29.7Q34.85-29.7 31.6-27.3L31.6-27.3Q31.25-24.6 29.55-17.88 27.85-11.15 27.28-7.93 26.7-4.7 26.7-2.95 26.7-1.2 26.75-0.8L26.75-0.8Q24.8 0.2 19.8 0.2L19.8 0.2 18.85 0.2Q18.85-4 21.2-14.1L21.2-14.1Q23.6-24.4 23.6-27.05 23.6-29.7 21.75-29.7L21.75-29.7Q19.05-29.7 15.45-27.1L15.45-27.1Q14.9-24.35 13.4-18.15L13.4-18.15Q10.05-3.95 10.05-0.8L10.05-0.8Q8.1 0.2 3.15 0.2L3.15 0.2 2.2 0.2Q2.4-2.05 4.85-13.03 7.3-24 7.9-29.45L7.9-29.45Q7.9-30.25 7.38-31.38 6.85-32.5 6.3-33.2L6.3-33.2 5.8-33.9 5.95-34.65Q8.75-35.5 15.6-35.5L15.6-35.5Q16.25-34.3 16.25-32.45L16.25-32.45Q16.25-32.05 16.05-30.35L16.05-30.35Q21.8-35.5 26.35-35.5L26.35-35.5Q28.4-35.5 29.8-34.1 31.2-32.7 31.6-30.45L31.6-30.45Q37.55-35.5 41.7-35.5L41.7-35.5Q44.3-35.5 45.9-33.8 47.5-32.1 47.5-29.05 47.5-26 45.38-17.43 43.25-8.85 43.25-5.45L43.25-5.45Q43.25-4 43.75-4L43.75-4Q44.2-4 46.2-5L46.2-5 46.9-5.3 47.9-3.45Q45.75-1.6 43.58-0.5 41.4 0.6 39.53 0.6ZM11.35-19.25L11.4-19.5Q11.35-19.4 11.35-19.25L11.35-19.25ZM52 0.25L52 0.25Q51.05 0.25 50.7 0.2L50.7 0.2Q51.05-2.7 53.77-14.53 56.5-26.35 56.5-29.5L56.5-29.5Q56.5-30.1 55.8-31.08 55.1-32.05 54.4-32.7L54.4-32.7 53.75-33.4 53.9-34.2Q60.75-35.5 68.4-35.5L68.4-35.5Q77.6-35.5 77.6-28.25L77.6-28.25Q77.6-24.7 75.82-21.78 74.05-18.85 70.3-17.2L70.3-17.2Q73.1-7.85 75.1-5.1L75.1-5.1Q76-3.95 76.5-3.95L76.5-3.95Q77.4-3.95 79.3-4.85L79.3-4.85 79.9-5.15 81.05-3.3Q79.2-1.6 76.77-0.5 74.35 0.6 72.22 0.6 70.1 0.6 68.72-1.23 67.35-3.05 66.22-6.6 65.1-10.15 63.95-15.7L63.95-15.7Q62.35-15.6 61.5-15.6L61.5-15.6Q58.95-4.65 58.7-0.8L58.7-0.8Q56.55 0.25 52 0.25ZM62.25-19L63.45-19Q66.45-19 68.17-21.68 69.9-24.35 69.9-28.05L69.9-28.05Q69.9-30 69.2-31.2 68.5-32.4 67.1-32.4L67.1-32.4Q66.5-32.4 65.67-32.23 64.85-32.05 64.85-32L64.85-32Q64.05-26.85 62.25-19L62.25-19Z" opacity="1" transform="matrix(1,0,0,1,0,0)" fill="#ffffff" class="wordmark-text-0" data-fill-palette-color="primary" id="text-0"></path></svg></g></svg></g></svg></g></svg></g><g transform="matrix(1,0,0,1,270.8502317379238,0)"><svg viewBox="0 0 151.05858047999996 119.86514195320753" height="119.86514195320753" width="151.05858047999996"><g><svg xmlns="http://www.w3.org/2000/svg" xmlns:xlink="http://www.w3.org/1999/xlink" version="1.1" x="0" y="0" viewBox="2.3 12.100000000000001 95.40000000000002 75.70000000000002" enable-background="new 0 0 100 100" xml:space="preserve" height="119.86514195320753" width="151.05858047999996" class="icon-icon-0" data-fill-palette-color="accent" id="icon-0"><path d="M84.7 25.7c-0.5-2.2-1.3-4.4-2.4-6.5 3.2 1.2 5.8 3.5 7.4 6.5H84.7zM72.2 19.2c-3.2 1.2-5.9 3.5-7.6 6.5h5C70.2 23.4 71.1 21.2 72.2 19.2zM76.1 18.3c-1.5 2.3-2.7 4.8-3.4 7.4h9c-0.7-2.6-1.8-5.1-3.3-7.4-0.4 0-0.8-0.1-1.3-0.1C76.8 18.3 76.5 18.3 76.1 18.3zM15.4 66.2V72h61.8v-5-2.9V57c2.6 0 5.2-0.4 7.7-1.2v8.4 2.9 4.5c0 1 0.3 2 1 2.7l3.9 4.8c0.3 0.4 0.5 0.8 0.5 1.3v2.2c0 2.9-2.3 5.2-5.2 5.2H7.5c-2.9 0-5.2-2.3-5.2-5.2v-2.2c0-0.5 0.2-0.9 0.5-1.3l4-4.9c0.6-0.8 1-1.7 1-2.7v-5.7-1.7V32.6c0-4.2 3.4-7.7 7.7-7.7H54c-0.8 2.5-1.2 5.1-1.2 7.7H15.4c0 0 0 0 0 0v31.6V66.2zM38 80.3c0 1.5 1.2 2.7 2.7 2.7H52c1.5 0 2.7-1.2 2.7-2.7v-0.6H38V80.3zM68.8 32.8c0-1.4 0.1-2.8 0.3-4.2h-5.7c-0.4 1.3-0.6 2.6-0.6 4 0 1.4 0.2 2.7 0.6 3.9h5.6C68.9 35.3 68.8 34 68.8 32.8zM64.6 39.5c1.6 2.9 4.2 5.2 7.3 6.5-1.1-2.1-1.8-4.2-2.4-6.5H64.6zM71.7 32.8c0 1.3 0.1 2.5 0.3 3.8h10.3c0.2-1.4 0.3-2.7 0.3-4.1 0-1.3-0.1-2.5-0.3-3.8H72.1C71.8 30 71.7 31.4 71.7 32.8zM91.7 18.1c8 8 8 21 0 28.9-6.7 6.7-17 7.8-24.8 3.2l0 0c-3.1 2.3-6.4 2.7-8.7 2.4-0.8-0.1-0.9-1.2-0.2-1.5 2.1-1 3.4-3.1 4.2-4.8l-0.2-0.2c-7.1-8-6.8-20.3 0.9-28C70.7 10.1 83.7 10.1 91.7 18.1zM89.4 20.4c-3.3-3.3-7.6-5.1-12.2-5.1-4.6 0-8.9 1.8-12.2 5.1C61.8 23.7 60 28 60 32.6c0 4.6 1.8 8.9 5.1 12.2 3.3 3.3 7.6 5.1 12.2 5.1 4.6 0 8.9-1.8 12.2-5.1 3.3-3.3 5.1-7.6 5.1-12.2C94.5 28 92.7 23.7 89.4 20.4zM75.9 46.9c0.4 0 0.9 0.1 1.3 0.1 0.3 0 0.7 0 1 0 1.5-2.3 2.7-4.8 3.4-7.4h-9.1C73.3 42.1 74.4 44.6 75.9 46.9zM85.5 32.4c0 1.4-0.1 2.8-0.3 4.1H91c0.4-1.3 0.6-2.6 0.6-3.9 0-1.4-0.2-2.7-0.6-4h-5.7C85.4 29.9 85.5 31.1 85.5 32.4zM82.1 46.1c3.3-1.2 6-3.6 7.7-6.6h-5.1C84.1 41.8 83.2 44 82.1 46.1z" fill="#ffffff" data-fill-palette-color="accent"></path></svg></g></svg></g></svg></g></svg></g></svg></g><g><path d="M245.816 0c68.262 0 123.6 55.338 123.6 123.6 0 68.262-55.338 123.6-123.6 123.6-53.376 0-98.85-33.834-116.145-81.225h3.118c17.158 45.745 61.29 78.302 113.027 78.302 66.648 0 120.677-54.029 120.676-120.677 0-66.648-54.029-120.677-120.676-120.677-51.737 0-95.869 32.558-113.027 78.302l-3.118 0c17.295-47.391 62.769-81.225 116.145-81.225z" fill="#ffffff" stroke="transparent" data-fill-palette-color="tertiary"></path></g></svg></g><defs></defs></svg><rect width="395.52" height="247.2" fill="none" stroke="none" visibility="hidden"></rect></g></svg></g></svg>